<svg id="svg" version="1.1" xmlns="http://www.w3.org/2000/svg" xmlns:xlink="http://www.w3.org/1999/xlink" width="400" height="400" viewBox="0, 0, 400,400"><g id="svgg"><path id="path0" d="M186.800 33.439 C 186.470 33.519,183.680 33.862,180.600 34.200 C 171.960 35.150,164.817 36.478,157.000 38.588 C 155.680 38.944,153.880 39.416,153.000 39.635 C 151.462 40.019,146.259 41.723,144.600 42.386 C 144.160 42.561,142.450 43.202,140.800 43.808 C 138.168 44.776,136.419 45.481,133.400 46.791 C 100.291 61.159,72.312 86.493,54.092 118.600 C 53.234 120.111,47.531 131.681,46.796 133.400 C 45.671 136.032,45.141 137.350,43.981 140.400 C 43.270 142.270,42.548 144.160,42.377 144.600 C 41.666 146.430,40.006 151.513,39.635 153.000 C 39.416 153.880,38.944 155.680,38.588 157.000 C 31.341 183.844,31.341 216.156,38.588 243.000 C 38.944 244.320,39.418 246.115,39.640 246.988 C 40.547 250.555,44.621 261.852,46.462 265.907 C 60.012 295.744,77.323 317.256,102.600 335.670 C 107.121 338.963,116.812 345.200,117.409 345.200 C 117.523 345.200,118.343 345.659,119.233 346.221 C 122.681 348.398,131.660 352.650,138.494 355.343 C 145.725 358.192,151.489 360.070,157.800 361.632 C 159.560 362.068,161.630 362.604,162.400 362.824 C 166.082 363.874,175.564 365.373,185.000 366.396 C 189.660 366.901,210.340 366.901,215.000 366.396 C 228.363 364.947,235.858 363.541,247.000 360.393 C 300.202 345.362,345.362 300.202,360.393 247.000 C 363.541 235.858,364.947 228.363,366.396 215.000 C 366.610 213.020,366.786 206.270,366.786 200.000 C 366.786 193.730,366.610 186.980,366.396 185.000 C 365.373 175.564,363.874 166.082,362.824 162.400 C 362.604 161.630,362.068 159.560,361.632 157.800 C 360.070 151.489,358.192 145.725,355.343 138.494 C 352.650 131.660,348.398 122.681,346.221 119.233 C 345.659 118.343,345.200 117.523,345.200 117.409 C 345.200 116.812,338.963 107.121,335.670 102.600 C 317.256 77.323,295.744 60.012,265.907 46.462 C 261.852 44.621,250.555 40.547,246.988 39.640 C 246.115 39.418,244.320 38.944,243.000 38.588 C 228.628 34.708,216.335 33.205,199.400 33.256 C 192.800 33.276,187.130 33.359,186.800 33.439 M210.600 50.001 C 217.330 50.464,226.821 51.761,231.320 52.831 C 240.098 54.920,249.966 57.804,253.000 59.168 C 253.440 59.365,255.870 60.374,258.400 61.410 C 265.633 64.371,277.750 70.795,281.873 73.855 C 282.574 74.375,283.248 74.800,283.371 74.800 C 283.676 74.800,292.249 81.057,294.029 82.578 C 294.815 83.250,296.435 84.597,297.629 85.571 C 300.440 87.864,312.136 99.560,314.429 102.371 C 315.403 103.565,316.752 105.185,317.426 105.971 C 318.661 107.410,324.656 115.584,325.400 116.844 C 325.620 117.217,326.865 119.204,328.167 121.261 C 330.756 125.352,336.076 135.484,337.796 139.600 C 338.394 141.030,339.224 142.955,339.641 143.878 C 340.059 144.801,340.400 145.825,340.400 146.154 C 340.400 146.484,340.566 146.855,340.769 146.981 C 340.972 147.106,341.265 147.786,341.420 148.491 C 341.575 149.197,341.853 150.050,342.037 150.387 C 342.222 150.724,342.934 152.890,343.619 155.200 C 344.305 157.510,345.017 159.850,345.201 160.400 C 345.647 161.731,347.320 169.353,348.363 174.800 C 351.451 190.934,350.844 214.094,346.837 233.000 C 345.427 239.652,340.602 254.969,339.535 256.180 C 339.351 256.389,339.200 256.795,339.200 257.083 C 339.200 257.534,335.462 265.804,334.427 267.642 C 334.229 267.995,333.235 269.860,332.218 271.787 C 328.807 278.254,321.402 289.378,317.263 294.251 C 316.678 294.940,315.489 296.380,314.620 297.451 C 313.751 298.523,310.253 302.230,306.847 305.689 C 300.353 312.284,299.599 312.717,299.601 309.851 C 299.606 304.440,294.684 290.161,290.309 282.893 C 289.479 281.514,288.800 280.299,288.800 280.193 C 288.800 278.610,276.152 264.246,272.070 261.194 C 271.338 260.648,269.898 259.554,268.870 258.765 C 264.736 255.591,258.301 252.003,250.623 248.590 C 247.065 247.009,240.574 245.203,232.788 243.629 C 224.261 241.905,176.724 241.915,168.000 243.643 C 161.384 244.953,157.874 245.874,153.400 247.475 C 128.297 256.459,109.175 276.996,103.004 301.600 C 102.645 303.030,102.193 304.830,101.999 305.600 C 101.805 306.370,101.520 308.140,101.367 309.534 C 100.952 313.318,100.629 313.213,94.730 307.357 C 80.006 292.744,68.578 275.927,61.331 258.211 C 60.339 255.785,59.365 253.440,59.168 253.000 C 58.626 251.794,55.695 242.827,55.246 241.000 C 55.030 240.120,54.489 237.960,54.045 236.200 C 52.262 229.133,52.139 228.498,50.984 220.400 C 48.828 205.277,49.661 181.183,52.762 169.000 C 53.417 166.428,54.839 160.736,55.259 159.000 C 57.368 150.307,62.968 137.024,69.593 125.000 C 87.969 91.653,124.542 63.833,162.400 54.407 C 165.150 53.722,168.120 52.981,169.000 52.759 C 178.645 50.327,197.339 49.087,210.600 50.001 M194.800 114.034 C 181.243 115.164,169.967 120.394,158.971 130.654 C 140.445 147.939,136.422 179.532,149.936 201.600 C 150.407 202.370,150.917 203.270,151.067 203.600 C 151.218 203.930,151.449 204.290,151.581 204.400 C 151.713 204.510,152.746 205.860,153.877 207.400 C 158.461 213.642,167.410 221.006,174.400 224.287 C 177.969 225.962,180.294 226.795,187.000 228.802 C 191.170 230.050,199.940 230.533,205.900 229.844 C 209.145 229.468,212.340 229.000,213.000 228.802 C 233.155 222.771,244.307 213.686,252.878 196.317 C 253.715 194.621,254.400 193.043,254.400 192.811 C 254.400 192.579,254.567 192.077,254.771 191.695 C 255.773 189.819,257.232 183.376,258.028 177.313 C 258.522 173.554,258.386 169.196,257.598 163.455 C 257.000 159.100,255.494 153.585,253.815 149.600 C 247.261 134.051,232.070 120.108,217.655 116.411 C 210.266 114.516,209.206 114.349,201.200 113.828 C 199.990 113.749,197.110 113.842,194.800 114.034 " stroke="none" fill="#040404" fill-rule="evenodd"></path><path id="path1" d="M0.000 200.000 L 0.000 400.000 200.000 400.000 L 400.000 400.000 400.000 200.000 L 400.000 0.000 200.000 0.000 L 0.000 0.000 0.000 200.000 M216.290 33.212 C 223.646 34.129,228.739 34.901,232.600 35.686 C 234.800 36.133,237.401 36.657,238.379 36.852 C 239.357 37.046,240.752 37.384,241.479 37.603 C 242.206 37.821,243.385 38.163,244.100 38.362 C 246.982 39.166,251.459 40.479,252.400 40.798 C 254.966 41.668,262.768 44.579,264.200 45.201 C 265.080 45.584,266.970 46.404,268.400 47.023 C 270.994 48.147,278.454 51.921,283.000 54.411 C 285.811 55.950,299.575 65.043,301.569 66.677 C 315.942 78.463,323.643 86.179,333.400 98.574 C 335.341 101.039,340.400 108.426,340.400 108.795 C 340.400 108.981,340.539 109.193,340.709 109.267 C 341.031 109.406,343.816 113.811,345.976 117.600 C 347.194 119.736,352.208 129.868,353.940 133.693 C 356.785 139.976,360.766 151.812,362.586 159.400 C 362.955 160.940,363.408 162.830,363.592 163.600 C 364.709 168.267,365.165 170.922,366.000 177.600 C 366.233 179.470,366.594 182.171,366.800 183.603 C 368.125 192.786,367.483 214.900,365.571 226.000 C 364.180 234.069,363.089 239.451,362.407 241.600 C 362.233 242.150,361.770 243.770,361.378 245.200 C 346.152 300.787,300.787 346.152,245.200 361.378 C 243.770 361.770,242.150 362.233,241.600 362.407 C 239.451 363.089,234.069 364.180,226.000 365.571 C 214.900 367.483,192.786 368.125,183.603 366.800 C 182.171 366.594,179.470 366.233,177.600 366.000 C 170.117 365.065,168.833 364.831,161.000 362.973 C 152.070 360.854,140.540 357.041,133.693 353.940 C 129.868 352.208,119.736 347.194,117.600 345.976 C 113.811 343.816,109.406 341.031,109.267 340.709 C 109.193 340.539,108.981 340.400,108.795 340.400 C 108.426 340.400,101.039 335.341,98.574 333.400 C 86.191 323.653,78.314 315.791,66.680 301.569 C 55.632 288.063,44.083 264.625,38.362 244.100 C 38.163 243.385,37.821 242.206,37.603 241.479 C 37.384 240.752,37.046 239.357,36.852 238.379 C 36.657 237.401,36.133 234.800,35.686 232.600 C 34.890 228.681,34.147 223.798,33.132 215.800 C 32.457 210.480,32.457 189.520,33.132 184.200 C 34.135 176.295,34.886 171.336,35.644 167.600 C 36.786 161.979,37.972 157.009,38.939 153.800 C 39.271 152.700,39.750 151.080,40.003 150.200 C 41.115 146.348,43.278 140.465,45.622 134.924 C 61.521 97.331,90.743 66.685,127.682 48.866 C 130.037 47.730,132.050 46.800,132.154 46.800 C 132.259 46.800,133.482 46.283,134.872 45.650 C 136.996 44.684,143.917 42.046,147.600 40.798 C 149.144 40.275,155.464 38.457,158.600 37.634 C 162.199 36.690,167.865 35.521,174.200 34.418 C 184.765 32.577,206.259 31.961,216.290 33.212 M191.055 50.422 C 184.768 50.717,182.127 51.030,174.000 52.443 C 168.834 53.342,166.224 53.862,164.400 54.357 C 163.630 54.566,161.830 55.045,160.400 55.423 C 156.990 56.323,148.542 59.083,146.940 59.820 C 146.246 60.139,145.479 60.400,145.234 60.400 C 144.989 60.400,144.477 60.571,144.095 60.781 C 143.713 60.990,142.680 61.465,141.800 61.836 C 132.175 65.897,116.746 74.653,111.400 79.088 C 111.180 79.271,109.830 80.303,108.400 81.381 C 99.205 88.317,88.317 99.205,81.381 108.400 C 80.303 109.830,79.271 111.180,79.088 111.400 C 74.653 116.746,65.897 132.175,61.836 141.800 C 61.465 142.680,60.990 143.713,60.781 144.095 C 60.571 144.477,60.400 144.989,60.400 145.234 C 60.400 145.479,60.139 146.246,59.820 146.940 C 59.083 148.542,56.323 156.990,55.423 160.400 C 55.045 161.830,54.566 163.630,54.357 164.400 C 53.689 166.862,52.384 173.925,51.253 181.200 C 49.991 189.316,49.965 210.518,51.208 218.600 C 52.327 225.884,52.872 229.113,53.200 230.400 C 53.395 231.170,53.931 233.510,54.390 235.600 C 54.849 237.690,55.381 239.850,55.571 240.400 C 55.762 240.950,56.220 242.480,56.590 243.800 C 56.959 245.120,57.408 246.560,57.588 247.000 C 57.768 247.440,58.221 248.700,58.595 249.800 C 58.969 250.900,59.528 252.367,59.838 253.060 C 60.147 253.754,60.400 254.521,60.400 254.766 C 60.400 255.011,60.573 255.523,60.785 255.905 C 60.997 256.287,61.639 257.680,62.213 259.000 C 67.172 270.417,72.106 279.033,79.491 289.173 C 85.025 296.771,99.018 311.856,100.180 311.476 C 100.411 311.400,100.652 310.812,100.716 310.169 C 101.841 298.828,107.891 284.594,116.344 273.400 C 120.170 268.334,133.086 256.400,134.743 256.400 C 134.958 256.400,135.193 256.256,135.267 256.079 C 135.464 255.603,139.701 253.118,143.800 251.072 C 146.919 249.516,148.456 248.840,152.600 247.201 C 153.040 247.027,154.210 246.623,155.200 246.303 C 156.190 245.984,157.639 245.516,158.421 245.264 C 166.754 242.575,173.976 242.026,200.800 242.043 C 227.122 242.059,230.101 242.244,239.095 244.416 C 245.158 245.880,249.745 247.551,256.400 250.716 C 278.769 261.356,294.905 282.230,299.598 306.600 C 299.852 307.920,300.184 309.526,300.336 310.169 L 300.612 311.338 305.206 306.769 C 312.179 299.834,316.414 294.949,321.129 288.400 C 322.476 286.530,323.724 284.820,323.904 284.600 C 324.416 283.975,329.674 275.318,331.480 272.129 C 336.276 263.658,341.238 251.640,344.002 241.800 C 346.365 233.385,346.971 230.510,348.764 219.200 C 350.121 210.638,350.118 189.514,348.757 180.800 C 347.857 175.032,347.147 170.917,346.789 169.400 C 346.581 168.520,346.039 166.180,345.583 164.200 C 345.127 162.220,344.585 160.060,344.379 159.400 C 344.173 158.740,343.658 157.030,343.234 155.600 C 342.291 152.415,339.802 145.455,338.994 143.740 C 338.667 143.046,338.400 142.382,338.400 142.263 C 338.400 141.601,334.288 133.124,331.302 127.632 C 321.892 110.322,307.272 93.288,291.600 81.376 C 290.170 80.289,288.910 79.310,288.800 79.200 C 286.279 76.679,264.010 63.600,262.239 63.600 C 262.013 63.600,256.858 61.307,255.905 60.782 C 255.523 60.572,255.011 60.400,254.766 60.400 C 254.521 60.400,253.754 60.147,253.060 59.838 C 252.367 59.528,250.900 58.969,249.800 58.595 C 248.700 58.221,247.440 57.768,247.000 57.588 C 246.560 57.408,245.120 56.959,243.800 56.590 C 242.480 56.220,240.950 55.762,240.400 55.571 C 239.850 55.381,237.690 54.849,235.600 54.390 C 233.510 53.931,231.170 53.395,230.400 53.200 C 229.113 52.872,225.884 52.327,218.600 51.208 C 215.929 50.797,201.123 49.954,198.600 50.069 C 197.940 50.099,194.545 50.258,191.055 50.422 M211.600 114.408 C 233.885 118.836,252.427 136.802,257.230 158.621 C 267.916 207.160,218.711 246.271,174.200 224.619 C 158.065 216.771,146.911 202.449,142.443 183.844 C 141.149 178.458,141.148 165.566,142.440 160.156 C 143.000 157.812,145.097 150.925,145.593 149.800 C 147.053 146.490,147.553 145.475,148.946 143.000 C 154.415 133.283,164.547 123.642,173.663 119.482 C 174.838 118.946,176.610 118.140,177.600 117.692 C 186.777 113.541,200.546 112.211,211.600 114.408 " stroke="none" fill="#f3f3f3" fill-rule="evenodd"></path><path id="path2" d="M196.500 32.698 C 198.425 32.771,201.575 32.771,203.500 32.698 C 205.425 32.625,203.850 32.565,200.000 32.565 C 196.150 32.565,194.575 32.625,196.500 32.698 M186.700 33.089 C 187.415 33.178,188.585 33.178,189.300 33.089 C 190.015 33.001,189.430 32.928,188.000 32.928 C 186.570 32.928,185.985 33.001,186.700 33.089 M210.700 33.089 C 211.415 33.178,212.585 33.178,213.300 33.089 C 214.015 33.001,213.430 32.928,212.000 32.928 C 210.570 32.928,209.985 33.001,210.700 33.089 M176.100 34.276 C 176.485 34.376,177.115 34.376,177.500 34.276 C 177.885 34.175,177.570 34.093,176.800 34.093 C 176.030 34.093,175.715 34.175,176.100 34.276 M222.500 34.276 C 222.885 34.376,223.515 34.376,223.900 34.276 C 224.285 34.175,223.970 34.093,223.200 34.093 C 222.430 34.093,222.115 34.175,222.500 34.276 M191.100 50.295 C 192.255 50.376,194.145 50.376,195.300 50.295 C 196.455 50.214,195.510 50.148,193.200 50.148 C 190.890 50.148,189.945 50.214,191.100 50.295 M204.700 50.295 C 205.855 50.376,207.745 50.376,208.900 50.295 C 210.055 50.214,209.110 50.148,206.800 50.148 C 204.490 50.148,203.545 50.214,204.700 50.295 M212.900 50.676 C 213.285 50.776,213.915 50.776,214.300 50.676 C 214.685 50.575,214.370 50.493,213.600 50.493 C 212.830 50.493,212.515 50.575,212.900 50.676 M218.200 51.200 C 218.860 51.368,219.850 51.505,220.400 51.505 C 221.292 51.505,221.270 51.472,220.200 51.200 C 219.540 51.032,218.550 50.895,218.000 50.895 C 217.108 50.895,217.130 50.928,218.200 51.200 M168.400 53.200 C 167.576 53.464,167.541 53.526,168.200 53.554 C 168.640 53.573,169.270 53.413,169.600 53.200 C 170.301 52.747,169.814 52.747,168.400 53.200 M230.400 53.182 C 230.730 53.405,231.345 53.591,231.767 53.594 C 232.790 53.602,232.471 53.373,231.000 53.044 C 230.124 52.848,229.962 52.885,230.400 53.182 M146.200 59.814 C 145.195 60.298,145.163 60.353,146.000 60.151 C 146.550 60.019,147.171 59.750,147.380 59.555 C 147.898 59.071,147.614 59.133,146.200 59.814 M252.400 59.431 C 252.400 59.701,254.478 60.456,254.676 60.257 C 254.767 60.167,254.292 59.901,253.620 59.667 C 252.949 59.433,252.400 59.327,252.400 59.431 M295.600 62.562 C 295.600 62.672,296.410 63.319,297.400 64.000 C 298.390 64.681,299.200 65.148,299.200 65.038 C 299.200 64.928,298.390 64.281,297.400 63.600 C 296.410 62.919,295.600 62.452,295.600 62.562 M87.978 75.500 L 86.600 77.000 88.100 75.622 C 89.496 74.338,89.784 74.000,89.478 74.000 C 89.412 74.000,88.737 74.675,87.978 75.500 M310.400 74.125 C 310.400 74.194,310.985 74.779,311.700 75.425 L 313.000 76.600 311.825 75.300 C 310.730 74.088,310.400 73.816,310.400 74.125 M289.611 79.862 C 290.155 80.227,290.970 80.812,291.423 81.162 C 291.876 81.513,291.621 81.215,290.857 80.500 C 290.092 79.785,289.277 79.200,289.044 79.200 C 288.812 79.200,289.067 79.498,289.611 79.862 M318.200 81.600 C 319.506 82.920,320.665 84.000,320.775 84.000 C 320.885 84.000,319.906 82.920,318.600 81.600 C 317.294 80.280,316.135 79.200,316.025 79.200 C 315.915 79.200,316.894 80.280,318.200 81.600 M81.381 81.700 L 79.800 83.400 81.500 81.819 C 82.435 80.949,83.200 80.184,83.200 80.119 C 83.200 79.816,82.852 80.119,81.381 81.700 M101.775 86.500 L 100.600 87.800 101.900 86.625 C 103.112 85.530,103.384 85.200,103.075 85.200 C 103.006 85.200,102.421 85.785,101.775 86.500 M296.800 85.325 C 296.800 85.394,297.385 85.979,298.100 86.625 L 299.400 87.800 298.225 86.500 C 297.130 85.288,296.800 85.016,296.800 85.325 M75.178 88.300 L 73.800 89.800 75.300 88.422 C 76.696 87.138,76.984 86.800,76.678 86.800 C 76.612 86.800,75.937 87.475,75.178 88.300 M323.600 87.325 C 323.600 87.394,324.185 87.979,324.900 88.625 L 326.200 89.800 325.025 88.500 C 323.930 87.288,323.600 87.016,323.600 87.325 M97.781 90.100 L 96.200 91.800 97.900 90.219 C 98.835 89.349,99.600 88.584,99.600 88.519 C 99.600 88.216,99.252 88.519,97.781 90.100 M301.800 90.000 C 302.659 90.880,303.452 91.600,303.562 91.600 C 303.672 91.600,303.059 90.880,302.200 90.000 C 301.341 89.120,300.548 88.400,300.438 88.400 C 300.328 88.400,300.941 89.120,301.800 90.000 M89.781 98.100 L 88.200 99.800 89.900 98.219 C 90.835 97.349,91.600 96.584,91.600 96.519 C 91.600 96.216,91.252 96.519,89.781 98.100 M309.800 98.000 C 310.659 98.880,311.452 99.600,311.562 99.600 C 311.672 99.600,311.059 98.880,310.200 98.000 C 309.341 97.120,308.548 96.400,308.438 96.400 C 308.328 96.400,308.941 97.120,309.800 98.000 M86.175 102.100 L 85.000 103.400 86.300 102.225 C 87.512 101.130,87.784 100.800,87.475 100.800 C 87.406 100.800,86.821 101.385,86.175 102.100 M312.400 100.925 C 312.400 100.994,312.985 101.579,313.700 102.225 L 315.000 103.400 313.825 102.100 C 312.730 100.888,312.400 100.616,312.400 100.925 M335.600 102.000 C 336.070 102.660,336.544 103.200,336.654 103.200 C 336.764 103.200,336.470 102.660,336.000 102.000 C 335.530 101.340,335.056 100.800,334.946 100.800 C 334.836 100.800,335.130 101.340,335.600 102.000 M198.300 113.493 C 199.235 113.577,200.765 113.577,201.700 113.493 C 202.635 113.409,201.870 113.340,200.000 113.340 C 198.130 113.340,197.365 113.409,198.300 113.493 M323.600 115.200 C 324.070 115.860,324.544 116.400,324.654 116.400 C 324.764 116.400,324.470 115.860,324.000 115.200 C 323.530 114.540,323.056 114.000,322.946 114.000 C 322.836 114.000,323.130 114.540,323.600 115.200 M184.600 115.200 C 184.096 115.417,184.022 115.544,184.400 115.544 C 184.730 115.544,185.360 115.389,185.800 115.200 C 186.304 114.983,186.378 114.856,186.000 114.856 C 185.670 114.856,185.040 115.011,184.600 115.200 M214.200 115.200 C 214.640 115.389,215.270 115.544,215.600 115.544 C 215.978 115.544,215.904 115.417,215.400 115.200 C 214.960 115.011,214.330 114.856,214.000 114.856 C 213.622 114.856,213.696 114.983,214.200 115.200 M158.392 130.700 L 154.600 134.600 158.500 130.808 C 162.122 127.286,162.582 126.800,162.292 126.800 C 162.233 126.800,160.478 128.555,158.392 130.700 M239.000 128.400 C 239.859 129.280,240.652 130.000,240.762 130.000 C 240.872 130.000,240.259 129.280,239.400 128.400 C 238.541 127.520,237.748 126.800,237.638 126.800 C 237.528 126.800,238.141 127.520,239.000 128.400 M243.400 132.800 C 244.259 133.680,245.052 134.400,245.162 134.400 C 245.272 134.400,244.659 133.680,243.800 132.800 C 242.941 131.920,242.148 131.200,242.038 131.200 C 241.928 131.200,242.541 131.920,243.400 132.800 M357.829 144.400 C 357.976 144.950,358.264 145.670,358.467 146.000 C 358.725 146.417,358.757 146.295,358.571 145.600 C 358.424 145.050,358.136 144.330,357.933 144.000 C 357.675 143.583,357.643 143.705,357.829 144.400 M59.667 146.380 C 59.433 147.051,59.327 147.600,59.431 147.600 C 59.701 147.600,60.456 145.522,60.257 145.324 C 60.167 145.233,59.901 145.708,59.667 146.380 M257.458 161.200 C 257.775 162.925,258.002 163.251,257.994 161.967 C 257.991 161.435,257.811 160.730,257.594 160.400 C 257.318 159.978,257.277 160.215,257.458 161.200 M53.246 168.067 C 53.221 168.434,53.096 169.064,52.970 169.467 C 52.752 170.162,52.763 170.163,53.197 169.487 C 53.448 169.096,53.573 168.466,53.473 168.087 C 53.311 167.468,53.288 167.466,53.246 168.067 M258.546 171.800 C 258.547 174.000,258.614 174.849,258.695 173.687 C 258.776 172.524,258.776 170.724,258.693 169.687 C 258.611 168.649,258.545 169.600,258.546 171.800 M141.320 172.000 C 141.320 173.210,141.395 173.705,141.487 173.100 C 141.578 172.495,141.578 171.505,141.487 170.900 C 141.395 170.295,141.320 170.790,141.320 172.000 M365.693 176.400 C 365.693 177.170,365.775 177.485,365.876 177.100 C 365.976 176.715,365.976 176.085,365.876 175.700 C 365.775 175.315,365.693 175.630,365.693 176.400 M34.093 176.800 C 34.093 177.570,34.175 177.885,34.276 177.500 C 34.376 177.115,34.376 176.485,34.276 176.100 C 34.175 175.715,34.093 176.030,34.093 176.800 M257.654 181.867 C 257.625 182.344,257.496 183.064,257.370 183.467 C 257.152 184.161,257.164 184.162,257.596 183.488 C 257.847 183.097,257.975 182.377,257.881 181.888 C 257.709 181.001,257.709 181.001,257.654 181.867 M142.856 185.600 C 142.856 185.930,143.011 186.560,143.200 187.000 C 143.417 187.504,143.544 187.578,143.544 187.200 C 143.544 186.870,143.389 186.240,143.200 185.800 C 142.983 185.296,142.856 185.222,142.856 185.600 M349.293 186.400 C 349.293 187.170,349.375 187.485,349.476 187.100 C 349.576 186.715,349.576 186.085,349.476 185.700 C 349.375 185.315,349.293 185.630,349.293 186.400 M366.920 187.200 C 366.920 188.410,366.995 188.905,367.087 188.300 C 367.178 187.695,367.178 186.705,367.087 186.100 C 366.995 185.495,366.920 185.990,366.920 187.200 M32.928 188.000 C 32.928 189.430,33.001 190.015,33.089 189.300 C 33.178 188.585,33.178 187.415,33.089 186.700 C 33.001 185.985,32.928 186.570,32.928 188.000 M349.742 191.800 C 349.741 193.780,349.808 194.640,349.892 193.712 C 349.976 192.784,349.977 191.164,349.895 190.112 C 349.812 189.060,349.743 189.820,349.742 191.800 M50.148 193.200 C 50.148 195.510,50.214 196.455,50.295 195.300 C 50.376 194.145,50.376 192.255,50.295 191.100 C 50.214 189.945,50.148 190.890,50.148 193.200 M367.366 200.000 C 367.366 204.070,367.425 205.735,367.498 203.700 C 367.571 201.665,367.571 198.335,367.498 196.300 C 367.425 194.265,367.366 195.930,367.366 200.000 M32.565 200.000 C 32.565 203.850,32.625 205.425,32.698 203.500 C 32.771 201.575,32.771 198.425,32.698 196.500 C 32.625 194.575,32.565 196.150,32.565 200.000 M50.148 206.800 C 50.148 209.110,50.214 210.055,50.295 208.900 C 50.376 207.745,50.376 205.855,50.295 204.700 C 50.214 203.545,50.148 204.490,50.148 206.800 M349.742 208.200 C 349.741 210.180,349.808 211.040,349.892 210.112 C 349.976 209.184,349.977 207.564,349.895 206.512 C 349.812 205.460,349.743 206.220,349.742 208.200 M32.928 212.000 C 32.928 213.430,33.001 214.015,33.089 213.300 C 33.178 212.585,33.178 211.415,33.089 210.700 C 33.001 209.985,32.928 210.570,32.928 212.000 M241.600 213.000 C 239.961 214.650,238.710 216.000,238.820 216.000 C 238.930 216.000,240.361 214.650,242.000 213.000 C 243.639 211.350,244.890 210.000,244.780 210.000 C 244.670 210.000,243.239 211.350,241.600 213.000 M158.400 213.400 C 159.817 214.830,161.067 216.000,161.177 216.000 C 161.287 216.000,160.217 214.830,158.800 213.400 C 157.383 211.970,156.133 210.800,156.023 210.800 C 155.913 210.800,156.983 211.970,158.400 213.400 M366.920 212.800 C 366.920 214.010,366.995 214.505,367.087 213.900 C 367.178 213.295,367.178 212.305,367.087 211.700 C 366.995 211.095,366.920 211.590,366.920 212.800 M50.493 213.600 C 50.493 214.370,50.575 214.685,50.676 214.300 C 50.776 213.915,50.776 213.285,50.676 212.900 C 50.575 212.515,50.493 212.830,50.493 213.600 M236.770 217.500 L 235.800 218.600 237.000 217.600 C 237.660 217.050,238.275 216.555,238.367 216.500 C 238.458 216.445,238.355 216.400,238.136 216.400 C 237.918 216.400,237.303 216.895,236.770 217.500 M50.895 218.000 C 50.895 218.550,51.032 219.540,51.200 220.200 C 51.472 221.270,51.505 221.292,51.505 220.400 C 51.505 219.850,51.368 218.860,51.200 218.200 C 50.928 217.130,50.895 217.108,50.895 218.000 M34.093 223.200 C 34.093 223.970,34.175 224.285,34.276 223.900 C 34.376 223.515,34.376 222.885,34.276 222.500 C 34.175 222.115,34.093 222.430,34.093 223.200 M365.693 223.600 C 365.693 224.370,365.775 224.685,365.876 224.300 C 365.976 223.915,365.976 223.285,365.876 222.900 C 365.775 222.515,365.693 222.830,365.693 223.600 M347.422 227.022 C 347.272 227.825,347.228 228.562,347.326 228.660 C 347.424 228.757,347.627 228.181,347.778 227.378 C 347.928 226.575,347.972 225.838,347.874 225.740 C 347.776 225.643,347.573 226.219,347.422 227.022 M188.400 229.600 C 188.950 229.776,189.760 229.920,190.200 229.920 C 190.833 229.920,190.792 229.854,190.000 229.600 C 189.450 229.424,188.640 229.280,188.200 229.280 C 187.567 229.280,187.608 229.346,188.400 229.600 M210.000 229.600 C 209.208 229.854,209.167 229.920,209.800 229.920 C 210.240 229.920,211.050 229.776,211.600 229.600 C 212.392 229.346,212.433 229.280,211.800 229.280 C 211.360 229.280,210.550 229.424,210.000 229.600 M53.044 231.000 C 53.373 232.471,53.602 232.790,53.594 231.767 C 53.591 231.345,53.405 230.730,53.182 230.400 C 52.885 229.962,52.848 230.124,53.044 231.000 M198.100 230.694 C 199.145 230.776,200.855 230.776,201.900 230.694 C 202.945 230.612,202.090 230.544,200.000 230.544 C 197.910 230.544,197.055 230.612,198.100 230.694 M363.429 235.829 C 363.281 236.415,363.238 236.972,363.332 237.066 C 363.427 237.160,363.624 236.758,363.771 236.171 C 363.919 235.585,363.962 235.028,363.868 234.934 C 363.773 234.840,363.576 235.242,363.429 235.829 M362.446 240.067 C 362.421 240.434,362.296 241.064,362.170 241.467 C 361.952 242.162,361.963 242.163,362.397 241.487 C 362.648 241.096,362.773 240.466,362.673 240.087 C 362.511 239.468,362.488 239.466,362.446 240.067 M177.105 242.283 C 177.602 242.379,178.322 242.375,178.705 242.275 C 179.087 242.175,178.680 242.096,177.800 242.101 C 176.920 242.105,176.607 242.187,177.105 242.283 M222.300 242.282 C 222.795 242.378,223.605 242.378,224.100 242.282 C 224.595 242.187,224.190 242.109,223.200 242.109 C 222.210 242.109,221.805 242.187,222.300 242.282 M171.700 242.676 C 172.085 242.776,172.715 242.776,173.100 242.676 C 173.485 242.575,173.170 242.493,172.400 242.493 C 171.630 242.493,171.315 242.575,171.700 242.676 M227.633 242.549 C 227.725 242.631,228.700 242.801,229.800 242.928 C 231.149 243.084,231.474 243.049,230.800 242.820 C 229.801 242.480,227.318 242.268,227.633 242.549 M163.600 244.006 C 163.178 244.282,163.415 244.323,164.400 244.142 C 166.125 243.825,166.451 243.598,165.167 243.606 C 164.635 243.609,163.930 243.789,163.600 244.006 M59.667 253.620 C 59.901 254.292,60.167 254.767,60.257 254.676 C 60.456 254.478,59.701 252.400,59.431 252.400 C 59.327 252.400,59.433 252.949,59.667 253.620 M272.800 261.325 C 272.800 261.394,273.385 261.979,274.100 262.625 L 275.400 263.800 274.225 262.500 C 273.130 261.288,272.800 261.016,272.800 261.325 M124.778 264.300 L 123.400 265.800 124.900 264.422 C 126.296 263.138,126.584 262.800,126.278 262.800 C 126.212 262.800,125.537 263.475,124.778 264.300 M120.378 268.700 L 119.000 270.200 120.500 268.822 C 121.896 267.538,122.184 267.200,121.878 267.200 C 121.812 267.200,121.137 267.875,120.378 268.700 M284.383 273.500 C 285.126 274.435,285.806 275.200,285.894 275.200 C 286.177 275.200,284.463 272.949,283.735 272.364 C 283.348 272.054,283.640 272.565,284.383 273.500 M337.785 294.900 C 337.168 295.835,336.920 296.389,337.232 296.131 C 337.833 295.634,339.364 293.200,339.076 293.200 C 338.983 293.200,338.402 293.965,337.785 294.900 M63.600 297.400 C 64.281 298.390,64.928 299.200,65.038 299.200 C 65.148 299.200,64.681 298.390,64.000 297.400 C 63.319 296.410,62.672 295.600,62.562 295.600 C 62.452 295.600,62.919 296.410,63.600 297.400 M85.200 296.925 C 85.200 296.994,85.785 297.579,86.500 298.225 L 87.800 299.400 86.625 298.100 C 85.530 296.888,85.200 296.616,85.200 296.925 M310.778 301.100 L 309.400 302.600 310.900 301.222 C 312.296 299.938,312.584 299.600,312.278 299.600 C 312.212 299.600,311.537 300.275,310.778 301.100 M89.800 302.000 C 90.659 302.880,91.452 303.600,91.562 303.600 C 91.672 303.600,91.059 302.880,90.200 302.000 C 89.341 301.120,88.548 300.400,88.438 300.400 C 88.328 300.400,88.941 301.120,89.800 302.000 M332.000 302.800 C 331.303 303.680,330.823 304.400,330.933 304.400 C 331.043 304.400,331.703 303.680,332.400 302.800 C 333.097 301.920,333.577 301.200,333.467 301.200 C 333.357 301.200,332.697 301.920,332.000 302.800 M298.456 302.400 C 298.456 302.730,298.611 303.360,298.800 303.800 C 299.017 304.304,299.144 304.378,299.144 304.000 C 299.144 303.670,298.989 303.040,298.800 302.600 C 298.583 302.096,298.456 302.022,298.456 302.400 M97.800 310.000 C 98.659 310.880,99.452 311.600,99.562 311.600 C 99.672 311.600,99.059 310.880,98.200 310.000 C 97.341 309.120,96.548 308.400,96.438 308.400 C 96.328 308.400,96.941 309.120,97.800 310.000 M301.376 310.426 C 300.670 311.207,300.613 311.213,300.343 310.526 C 300.091 309.887,300.053 309.881,300.028 310.476 C 299.982 311.591,300.626 311.636,301.612 310.588 C 302.122 310.044,302.446 309.600,302.332 309.600 C 302.217 309.600,301.788 309.972,301.376 310.426 M74.000 310.525 C 74.000 310.594,74.585 311.179,75.300 311.825 L 76.600 313.000 75.425 311.700 C 74.330 310.488,74.000 310.216,74.000 310.525 M318.192 318.500 L 314.600 322.200 318.300 318.608 C 320.335 316.633,322.000 314.968,322.000 314.908 C 322.000 314.618,321.528 315.064,318.192 318.500 M81.400 318.400 C 82.706 319.720,83.865 320.800,83.975 320.800 C 84.085 320.800,83.106 319.720,81.800 318.400 C 80.494 317.080,79.335 316.000,79.225 316.000 C 79.115 316.000,80.094 317.080,81.400 318.400 M87.200 323.725 C 87.200 323.794,87.785 324.379,88.500 325.025 L 89.800 326.200 88.625 324.900 C 87.530 323.688,87.200 323.416,87.200 323.725 M302.600 332.244 L 301.000 333.676 302.700 332.404 C 304.163 331.310,304.691 330.783,304.300 330.806 C 304.245 330.809,303.480 331.456,302.600 332.244 M100.800 334.946 C 100.800 335.056,101.340 335.530,102.000 336.000 C 102.660 336.470,103.200 336.764,103.200 336.654 C 103.200 336.544,102.660 336.070,102.000 335.600 C 101.340 335.130,100.800 334.836,100.800 334.946 M144.000 357.933 C 144.330 358.136,145.050 358.424,145.600 358.571 C 146.295 358.757,146.417 358.725,146.000 358.467 C 145.670 358.264,144.950 357.976,144.400 357.829 C 143.705 357.643,143.583 357.675,144.000 357.933 M240.400 362.400 C 239.576 362.664,239.541 362.726,240.200 362.754 C 240.640 362.773,241.270 362.613,241.600 362.400 C 242.301 361.947,241.814 361.947,240.400 362.400 M163.400 363.600 C 163.840 363.789,164.470 363.944,164.800 363.944 C 165.178 363.944,165.104 363.817,164.600 363.600 C 164.160 363.411,163.530 363.256,163.200 363.256 C 162.822 363.256,162.896 363.383,163.400 363.600 M235.400 363.600 C 234.896 363.817,234.822 363.944,235.200 363.944 C 235.530 363.944,236.160 363.789,236.600 363.600 C 237.104 363.383,237.178 363.256,236.800 363.256 C 236.470 363.256,235.840 363.411,235.400 363.600 M175.700 365.876 C 176.085 365.976,176.715 365.976,177.100 365.876 C 177.485 365.775,177.170 365.693,176.400 365.693 C 175.630 365.693,175.315 365.775,175.700 365.876 M222.900 365.876 C 223.285 365.976,223.915 365.976,224.300 365.876 C 224.685 365.775,224.370 365.693,223.600 365.693 C 222.830 365.693,222.515 365.775,222.900 365.876 M186.100 367.087 C 186.705 367.178,187.695 367.178,188.300 367.087 C 188.905 366.995,188.410 366.920,187.200 366.920 C 185.990 366.920,185.495 366.995,186.100 367.087 M211.700 367.087 C 212.305 367.178,213.295 367.178,213.900 367.087 C 214.505 366.995,214.010 366.920,212.800 366.920 C 211.590 366.920,211.095 366.995,211.700 367.087 M196.300 367.498 C 198.335 367.571,201.665 367.571,203.700 367.498 C 205.735 367.425,204.070 367.366,200.000 367.366 C 195.930 367.366,194.265 367.425,196.300 367.498 " stroke="none" fill="#959595" fill-rule="evenodd"></path><path id="path3" d="M199.100 49.882 C 199.595 49.978,200.405 49.978,200.900 49.882 C 201.395 49.787,200.990 49.709,200.000 49.709 C 199.010 49.709,198.605 49.787,199.100 49.882 M350.134 200.000 C 350.134 201.650,350.205 202.325,350.291 201.500 C 350.378 200.675,350.378 199.325,350.291 198.500 C 350.205 197.675,350.134 198.350,350.134 200.000 M49.709 200.000 C 49.709 200.990,49.787 201.395,49.882 200.900 C 49.978 200.405,49.978 199.595,49.882 199.100 C 49.787 198.605,49.709 199.010,49.709 200.000 M305.978 306.300 L 304.600 307.800 306.100 306.422 C 307.496 305.138,307.784 304.800,307.478 304.800 C 307.412 304.800,306.737 305.475,305.978 306.300 " stroke="none" fill="#747474" fill-rule="evenodd"></path><path id="path4" d="M196.321 33.099 C 198.588 33.170,202.188 33.170,204.321 33.098 C 206.455 33.026,204.600 32.968,200.200 32.968 C 195.800 32.968,194.055 33.027,196.321 33.099 M181.500 33.882 C 181.995 33.978,182.805 33.978,183.300 33.882 C 183.795 33.787,183.390 33.709,182.400 33.709 C 181.410 33.709,181.005 33.787,181.500 33.882 M217.105 33.883 C 217.602 33.979,218.322 33.975,218.705 33.875 C 219.087 33.775,218.680 33.696,217.800 33.701 C 216.920 33.705,216.607 33.787,217.105 33.883 M237.400 37.200 C 237.840 37.389,238.470 37.544,238.800 37.544 C 239.178 37.544,239.104 37.417,238.600 37.200 C 238.160 37.011,237.530 36.856,237.200 36.856 C 236.822 36.856,236.896 36.983,237.400 37.200 M194.100 49.891 C 194.925 49.978,196.275 49.978,197.100 49.891 C 197.925 49.805,197.250 49.734,195.600 49.734 C 193.950 49.734,193.275 49.805,194.100 49.891 M202.900 49.891 C 203.725 49.978,205.075 49.978,205.900 49.891 C 206.725 49.805,206.050 49.734,204.400 49.734 C 202.750 49.734,202.075 49.805,202.900 49.891 M185.905 50.283 C 186.402 50.379,187.122 50.375,187.505 50.275 C 187.887 50.175,187.480 50.096,186.600 50.101 C 185.720 50.105,185.407 50.187,185.905 50.283 M212.705 50.283 C 213.202 50.379,213.922 50.375,214.305 50.275 C 214.687 50.175,214.280 50.096,213.400 50.101 C 212.520 50.105,212.207 50.187,212.705 50.283 M250.800 58.534 C 250.800 58.637,251.381 58.924,252.091 59.172 C 252.801 59.419,253.206 59.457,252.991 59.256 C 252.535 58.829,250.800 58.258,250.800 58.534 M317.993 81.700 C 321.887 85.694,322.400 86.182,322.400 85.893 C 322.400 85.834,320.465 83.899,318.100 81.593 L 313.800 77.400 317.993 81.700 M81.600 81.800 C 80.628 82.790,79.923 83.600,80.033 83.600 C 80.143 83.600,81.028 82.790,82.000 81.800 C 82.972 80.810,83.677 80.000,83.567 80.000 C 83.457 80.000,82.572 80.810,81.600 81.800 M301.400 89.200 C 302.259 90.080,303.052 90.800,303.162 90.800 C 303.272 90.800,302.659 90.080,301.800 89.200 C 300.941 88.320,300.148 87.600,300.038 87.600 C 299.928 87.600,300.541 88.320,301.400 89.200 M96.981 90.500 L 95.400 92.200 97.100 90.619 C 98.035 89.749,98.800 88.984,98.800 88.919 C 98.800 88.616,98.452 88.919,96.981 90.500 M90.181 97.300 L 88.600 99.000 90.300 97.419 C 91.235 96.549,92.000 95.784,92.000 95.719 C 92.000 95.416,91.652 95.719,90.181 97.300 M310.600 98.400 C 311.459 99.280,312.252 100.000,312.362 100.000 C 312.472 100.000,311.859 99.280,311.000 98.400 C 310.141 97.520,309.348 96.800,309.238 96.800 C 309.128 96.800,309.741 97.520,310.600 98.400 M195.100 113.889 C 195.815 113.978,196.985 113.978,197.700 113.889 C 198.415 113.801,197.830 113.728,196.400 113.728 C 194.970 113.728,194.385 113.801,195.100 113.889 M202.300 113.889 C 203.015 113.978,204.185 113.978,204.900 113.889 C 205.615 113.801,205.030 113.728,203.600 113.728 C 202.170 113.728,201.585 113.801,202.300 113.889 M160.378 129.100 L 159.000 130.600 160.500 129.222 C 161.896 127.938,162.184 127.600,161.878 127.600 C 161.812 127.600,161.137 128.275,160.378 129.100 M242.400 132.125 C 242.400 132.194,242.985 132.779,243.700 133.425 L 245.000 134.600 243.825 133.300 C 242.730 132.088,242.400 131.816,242.400 132.125 M257.693 164.400 C 257.693 165.170,257.775 165.485,257.876 165.100 C 257.976 164.715,257.976 164.085,257.876 163.700 C 257.775 163.315,257.693 163.630,257.693 164.400 M348.262 175.800 C 348.396 176.680,348.572 177.475,348.653 177.567 C 348.956 177.910,348.729 175.768,348.381 175.000 C 348.129 174.442,348.093 174.685,348.262 175.800 M141.693 176.400 C 141.693 177.170,141.775 177.485,141.876 177.100 C 141.976 176.715,141.976 176.085,141.876 175.700 C 141.775 175.315,141.693 175.630,141.693 176.400 M366.093 181.600 C 366.093 182.370,366.175 182.685,366.276 182.300 C 366.376 181.915,366.376 181.285,366.276 180.900 C 366.175 180.515,366.093 180.830,366.093 181.600 M33.709 182.400 C 33.709 183.390,33.787 183.795,33.882 183.300 C 33.978 182.805,33.978 181.995,33.882 181.500 C 33.787 181.005,33.709 181.410,33.709 182.400 M50.101 186.600 C 50.105 187.480,50.187 187.793,50.283 187.295 C 50.379 186.798,50.375 186.078,50.275 185.695 C 50.175 185.313,50.096 185.720,50.101 186.600 M349.693 186.400 C 349.693 187.170,349.775 187.485,349.876 187.100 C 349.976 186.715,349.976 186.085,349.876 185.700 C 349.775 185.315,349.693 185.630,349.693 186.400 M366.972 200.000 C 366.972 205.170,367.029 207.285,367.099 204.700 C 367.168 202.115,367.168 197.885,367.099 195.300 C 367.029 192.715,366.972 194.830,366.972 200.000 M32.969 200.000 C 32.969 204.510,33.027 206.355,33.098 204.100 C 33.170 201.845,33.170 198.155,33.098 195.900 C 33.027 193.645,32.969 195.490,32.969 200.000 M49.734 195.600 C 49.734 197.250,49.805 197.925,49.891 197.100 C 49.978 196.275,49.978 194.925,49.891 194.100 C 49.805 193.275,49.734 193.950,49.734 195.600 M350.124 195.000 C 350.126 196.320,350.201 196.812,350.290 196.093 C 350.379 195.374,350.377 194.294,350.286 193.693 C 350.195 193.092,350.122 193.680,350.124 195.000 M49.734 204.400 C 49.734 206.050,49.805 206.725,49.891 205.900 C 49.978 205.075,49.978 203.725,49.891 202.900 C 49.805 202.075,49.734 202.750,49.734 204.400 M350.124 205.000 C 350.126 206.320,350.201 206.812,350.290 206.093 C 350.379 205.374,350.377 204.294,350.286 203.693 C 350.195 203.092,350.122 203.680,350.124 205.000 M241.200 213.000 C 239.561 214.650,238.310 216.000,238.420 216.000 C 238.530 216.000,239.961 214.650,241.600 213.000 C 243.239 211.350,244.490 210.000,244.380 210.000 C 244.270 210.000,242.839 211.350,241.200 213.000 M158.600 213.200 C 160.128 214.740,161.469 216.000,161.579 216.000 C 161.689 216.000,160.528 214.740,159.000 213.200 C 157.472 211.660,156.131 210.400,156.021 210.400 C 155.911 210.400,157.072 211.660,158.600 213.200 M50.101 213.400 C 50.105 214.280,50.187 214.593,50.283 214.095 C 50.379 213.598,50.375 212.878,50.275 212.495 C 50.175 212.113,50.096 212.520,50.101 213.400 M349.693 213.600 C 349.693 214.370,349.775 214.685,349.876 214.300 C 349.976 213.915,349.976 213.285,349.876 212.900 C 349.775 212.515,349.693 212.830,349.693 213.600 M33.701 217.800 C 33.705 218.680,33.787 218.993,33.883 218.495 C 33.979 217.998,33.975 217.278,33.875 216.895 C 33.775 216.513,33.696 216.920,33.701 217.800 M366.093 218.400 C 366.093 219.170,366.175 219.485,366.276 219.100 C 366.376 218.715,366.376 218.085,366.276 217.700 C 366.175 217.315,366.093 217.630,366.093 218.400 M191.700 229.876 C 192.085 229.976,192.715 229.976,193.100 229.876 C 193.485 229.775,193.170 229.693,192.400 229.693 C 191.630 229.693,191.315 229.775,191.700 229.876 M206.900 229.876 C 207.285 229.976,207.915 229.976,208.300 229.876 C 208.685 229.775,208.370 229.693,207.600 229.693 C 206.830 229.693,206.515 229.775,206.900 229.876 M346.229 234.229 C 346.081 234.815,346.038 235.372,346.132 235.466 C 346.227 235.560,346.424 235.158,346.571 234.571 C 346.719 233.985,346.762 233.428,346.668 233.334 C 346.573 233.240,346.376 233.642,346.229 234.229 M36.856 237.200 C 36.856 237.530,37.011 238.160,37.200 238.600 C 37.417 239.104,37.544 239.178,37.544 238.800 C 37.544 238.470,37.389 237.840,37.200 237.400 C 36.983 236.896,36.856 236.822,36.856 237.200 M190.700 242.300 C 196.035 242.363,204.765 242.363,210.100 242.300 C 215.435 242.237,211.070 242.185,200.400 242.185 C 189.730 242.185,185.365 242.237,190.700 242.300 M175.507 242.690 C 176.226 242.779,177.306 242.777,177.907 242.686 C 178.508 242.595,177.920 242.522,176.600 242.524 C 175.280 242.526,174.788 242.601,175.507 242.690 M223.107 242.690 C 223.826 242.779,224.906 242.777,225.507 242.686 C 226.108 242.595,225.520 242.522,224.200 242.524 C 222.880 242.526,222.388 242.601,223.107 242.690 M58.618 251.700 C 58.768 252.195,59.055 252.776,59.256 252.991 C 59.457 253.206,59.419 252.801,59.172 252.091 C 58.665 250.638,58.197 250.308,58.618 251.700 M125.200 264.200 C 124.228 265.190,123.523 266.000,123.633 266.000 C 123.743 266.000,124.628 265.190,125.600 264.200 C 126.572 263.210,127.277 262.400,127.167 262.400 C 127.057 262.400,126.172 263.210,125.200 264.200 M277.983 266.500 C 278.964 267.545,279.819 268.400,279.883 268.400 C 280.184 268.400,279.866 268.041,278.100 266.383 L 276.200 264.600 277.983 266.500 M120.181 269.300 L 118.600 271.000 120.300 269.419 C 121.881 267.948,122.184 267.600,121.881 267.600 C 121.816 267.600,121.051 268.365,120.181 269.300 M280.400 269.325 C 280.400 269.394,280.985 269.979,281.700 270.625 L 283.000 271.800 281.825 270.500 C 280.730 269.288,280.400 269.016,280.400 269.325 M311.178 301.100 L 309.800 302.600 311.300 301.222 C 312.696 299.938,312.984 299.600,312.678 299.600 C 312.612 299.600,311.937 300.275,311.178 301.100 M89.000 301.600 C 89.859 302.480,90.652 303.200,90.762 303.200 C 90.872 303.200,90.259 302.480,89.400 301.600 C 88.541 300.720,87.748 300.000,87.638 300.000 C 87.528 300.000,88.141 300.720,89.000 301.600 M98.286 310.803 C 99.214 311.770,100.035 312.480,100.112 312.380 C 100.188 312.281,99.429 311.490,98.425 310.622 L 96.600 309.044 98.286 310.803 M299.632 310.251 C 299.574 311.802,300.557 312.118,301.635 310.895 L 302.600 309.800 301.510 310.760 C 300.678 311.493,300.379 311.588,300.242 311.160 C 299.714 309.505,299.662 309.428,299.632 310.251 M317.993 318.300 L 313.800 322.600 318.100 318.407 C 320.465 316.101,322.400 314.166,322.400 314.107 C 322.400 313.818,321.887 314.306,317.993 318.300 M78.800 315.310 C 78.800 315.371,80.195 316.766,81.900 318.410 L 85.000 321.400 82.010 318.300 C 79.233 315.421,78.800 315.017,78.800 315.310 M180.900 366.276 C 181.285 366.376,181.915 366.376,182.300 366.276 C 182.685 366.175,182.370 366.093,181.600 366.093 C 180.830 366.093,180.515 366.175,180.900 366.276 M217.700 366.276 C 218.085 366.376,218.715 366.376,219.100 366.276 C 219.485 366.175,219.170 366.093,218.400 366.093 C 217.630 366.093,217.315 366.175,217.700 366.276 M195.300 367.099 C 197.885 367.168,202.115 367.168,204.700 367.099 C 207.285 367.029,205.170 366.972,200.000 366.972 C 194.830 366.972,192.715 367.029,195.300 367.099 " stroke="none" fill="#6c6c6c" fill-rule="evenodd"></path></g></svg>